<svg xmlns="http://www.w3.org/2000/svg" width="1em" height="1em" viewBox="0 0 20 20" fill="none" class="w-5 h-5 pointer-events-none"><path fill-rule="evenodd" clip-rule="evenodd" d="M10 2.5a7.5 7.5 0 110 15 7.5 7.5 0 010-15zm1.725 10.744l-.213.022a16.71 16.71 0 01-3.238-.021c.137.572.309 1.095.511 1.55.443.996.925 1.455 1.215 1.455.29 0 .772-.459 1.215-1.454.202-.456.374-.98.51-1.552zm-7.63-1.188l.024.065a6.268 6.268 0 003.825 3.783c-.426-.751-.768-1.731-.99-2.858-1.127-.222-2.107-.564-2.858-.99zm11.809 0l-.117.064c-.735.396-1.672.716-2.74.927-.223 1.126-.566 2.106-.991 2.857a6.27 6.27 0 003.848-3.848zM10 7.916c-.676 0-1.335.044-1.959.125A15.177 15.177 0 007.917 10c0 .676.043 1.335.124 1.959.624.081 1.283.124 1.959.124.676 0 1.335-.043 1.959-.124.081-.624.124-1.283.124-1.959 0-.676-.043-1.335-.124-1.959A15.176 15.176 0 0010 7.917zm-3.245.358l-.267.068c-.468.124-.9.273-1.284.443-.922.41-1.384.855-1.447 1.148l-.007.057v.02l.005.043c.05.294.512.745 1.45 1.162.455.202.978.374 1.55.51a16.803 16.803 0 01-.039-3.031l.04-.42zm6.49 0l.01.093a16.652 16.652 0 01-.01 3.359 9.004 9.004 0 001.55-.511c.996-.443 1.455-.925 1.455-1.215 0-.29-.459-.772-1.454-1.215a8.924 8.924 0 00-1.552-.51zm-5.3-4.178l-.066.023a6.268 6.268 0 00-3.783 3.826c.63-.358 1.424-.657 2.329-.876l.433-.097.095-.018c.223-1.127.565-2.107.991-2.858zm4.11 0l.057.101c.333.615.612 1.37.819 2.228l.097.433.018.095c1.127.223 2.107.565 2.859.991a6.27 6.27 0 00-3.85-3.848zM10 3.75c-.29 0-.772.459-1.215 1.454a8.926 8.926 0 00-.51 1.552 16.608 16.608 0 013.451 0 9.006 9.006 0 00-.511-1.552c-.417-.937-.868-1.398-1.162-1.45L10 3.75z" fill="currentcolor"></path></svg>