<svg width="1em" height="1em" viewBox="0 0 24 24" xmlns="http://www.w3.org/2000/svg" class="w-5 h-5 pointer-events-none"><path d="M19.736 4.264c1.423 1.423.79 4.508-1.332 7.736 2.121 3.229 2.755 6.313 1.332 7.736-1.423 1.423-4.507.79-7.735-1.331-3.229 2.12-6.314 2.754-7.737 1.331s-.79-4.507 1.331-7.735c-2.12-3.229-2.754-6.314-1.331-7.737S8.772 3.474 12 5.596c3.229-2.121 6.313-2.755 7.736-1.332zm-2.27 9.045l.136-.176a23.365 23.365 0 01-2.086 2.383c-.72.72-1.462 1.374-2.208 1.952 2.466 1.509 4.617 1.97 5.373 1.213.757-.756.296-2.907-1.215-5.372zm-10.932.001l-.058.095c-1.464 2.425-1.904 4.53-1.157 5.276.756.757 2.906.296 5.37-1.214a23.666 23.666 0 01-2.205-1.95 23.483 23.483 0 01-1.95-2.207zM12 7.417l-.317.238c-.716.549-1.44 1.178-2.144 1.883-.81.81-1.52 1.643-2.122 2.462a21.67 21.67 0 002.122 2.462c.81.81 1.642 1.518 2.461 2.121a21.673 21.673 0 002.462-2.121c.809-.81 1.518-1.642 2.121-2.462a21.599 21.599 0 00-2.121-2.462A21.634 21.634 0 0012 7.417zm3.196-1.866l-.413.185c-.471.22-.966.487-1.473.798l-.177-.136c.805.61 1.607 1.309 2.383 2.086.72.72 1.373 1.461 1.95 2.207.311-.508.578-1.002.799-1.474l.184-.413c.687-1.627.787-2.93.232-3.485-.554-.555-1.858-.455-3.485.232zM5.32 5.32c-.555.554-.455 1.858.232 3.485l.185.413c.22.471.486.965.797 1.472a23.672 23.672 0 011.95-2.205c.72-.72 1.462-1.372 2.207-1.95a14.881 14.881 0 00-1.473-.798l-.413-.185c-1.627-.687-2.93-.787-3.485-.232z" fill="currentcolor" fill-rule="evenodd"></path></svg>