<svg width="1em" height="1em" viewBox="0 0 24 24" xmlns="http://www.w3.org/2000/svg" class="w-5 h-5 pointer-events-none"><path d="M4.87 20.001l-.234-.016-.108-.012c-.783-.122-1.395-.743-1.51-1.567l-.016-.147L3 18.143l.001-.3.005-.22c.097-2.215 1.478-4.174 3.636-5.143.166-.064.333-.121.5-.173l-.015-.007a3.958 3.958 0 014.005-6.825l.018-.023a4.222 4.222 0 017.409 2.77c0 1.392-.68 2.668-1.819 3.469l-.156.103.27.088.268.098.093.04.227.108c2.03 1.014 3.375 2.948 3.545 5.154l.013.237.004.236v.313L21 18.17l-.007.092-.012.103a1.926 1.926 0 01-1.633 1.61l-.15.014-.188.012H4.87zm4.823-6.803l-.053.05a4.865 4.865 0 00-.389-.015c-.72 0-1.44.138-2.162.414-1.601.72-2.673 2.175-2.82 3.83l-.014.2-.004.194-.001.275.002.081.012.085a.558.558 0 00.375.407l.082.02.056.003H7.8l-.042-.123a2.085 2.085 0 01-.07-.32l-.016-.157-.003-.123.001-.32.006-.235c.071-1.64.804-3.15 2.016-4.266zm4.645-.416c-.769 0-1.537.147-2.306.442-1.709.768-2.852 2.32-3.01 4.085l-.013.213-.005.207v.293l.002.087.013.09c.046.206.2.371.4.434l.087.02.059.005h9.549l.092-.012c.209-.046.374-.2.437-.4l.02-.087.008-.092v-.313l-.004-.21-.013-.215c-.138-1.633-1.121-3.084-2.61-3.905l-.197-.103-.203-.096-.288-.104a6.314 6.314 0 00-2.018-.339zM9.25 6.25a2.708 2.708 0 101.123 5.174l.167-.084.162-.095.138-.095c.092-.066.179-.138.261-.215a4.212 4.212 0 01-.987-2.713c0-.613.131-1.195.366-1.721l-.016.037A2.676 2.676 0 009.25 6.25zm5.087-.917a2.889 2.889 0 101.197 5.52l.18-.09.171-.102.148-.1a2.889 2.889 0 00-1.696-5.227z" fill="currentcolor" fill-rule="evenodd"></path></svg>